<?xml version="1.0" standalone="no"?>
<!DOCTYPE svg PUBLIC "-//W3C//DTD SVG 20010904//EN"
 "http://www.w3.org/TR/2001/REC-SVG-20010904/DTD/svg10.dtd">
<svg version="1.0" xmlns="http://www.w3.org/2000/svg"
 width="414.000000pt" height="490.000000pt" viewBox="0 0 414.000000 490.000000"
 preserveAspectRatio="xMidYMid meet">

<g transform="translate(0.000000,490.000000) scale(0.100000,-0.100000)"
fill="#000000" stroke="none">
<path d="M476 4889 c-230 -38 -393 -185 -455 -409 -20 -72 -21 -99 -21 -656
l0 -582 104 -4 c118 -3 147 -16 178 -79 16 -29 18 -64 18 -252 0 -236 -4 -261
-54 -307 -25 -23 -37 -25 -137 -28 l-109 -4 0 -1037 c0 -1017 0 -1038 21
-1111 59 -213 213 -361 424 -405 105 -22 3145 -22 3250 0 211 44 365 192 424
405 21 73 21 93 21 1112 l0 1038 -99 0 c-85 0 -102 3 -132 23 -64 42 -69 65
-69 312 0 190 2 225 18 254 31 63 60 76 178 79 l104 4 0 101 c0 78 -5 111 -19
142 -13 27 -235 256 -697 717 -583 581 -685 678 -719 687 -48 13 -2152 13
-2229 0z m199 -423 c19 -8 44 -30 55 -48 19 -32 20 -49 20 -486 l0 -452 -34
-38 -34 -37 -164 -3 c-183 -4 -208 2 -244 61 -18 30 -19 55 -19 479 0 436 0
447 21 475 39 53 75 63 227 63 97 0 148 -4 172 -14z m648 -9 c64 -42 62 -27
62 -517 0 -424 -1 -447 -20 -477 -32 -54 -65 -63 -230 -63 -163 0 -192 8 -225
63 -19 30 -20 53 -20 470 0 498 -1 494 74 529 35 16 61 18 186 16 119 -2 151
-6 173 -21z m622 9 c19 -8 44 -30 55 -48 20 -32 20 -46 18 -490 l-3 -458 -33
-32 -32 -33 -161 -3 c-180 -4 -206 2 -242 52 -22 31 -22 32 -22 483 0 441 0
452 21 480 39 53 75 63 227 63 97 0 148 -4 172 -14z m652 -12 c15 -11 36 -36
46 -55 16 -31 17 -69 15 -474 -3 -413 -4 -442 -22 -468 -34 -50 -61 -57 -226
-57 -169 0 -197 8 -230 63 -19 30 -20 53 -20 477 0 417 1 447 19 476 34 56 68
65 238 62 135 -3 155 -5 180 -24z m623 -397 c13 -7 35 -28 47 -46 22 -33 23
-41 23 -275 0 -337 0 -336 -252 -336 -245 0 -248 4 -248 334 0 253 5 281 62
316 29 18 50 20 188 20 104 0 163 -4 180 -13z m201 -1358 c69 -33 129 -91 166
-161 l28 -53 3 -892 c2 -889 2 -891 -19 -950 -16 -43 -37 -73 -83 -119 -110
-108 24 -99 -1446 -99 -1470 0 -1336 -9 -1446 99 -46 46 -67 76 -83 119 -21
59 -21 61 -19 950 l3 892 34 63 c33 60 85 113 141 142 74 39 63 39 1385 37
l1280 -2 56 -26z"/>
<path d="M380 3940 l0 -420 125 0 125 0 0 420 0 420 -125 0 -125 0 0 -420z"/>
<path d="M1010 3940 l0 -420 130 0 130 0 0 420 0 420 -130 0 -130 0 0 -420z"/>
<path d="M1645 4347 c-3 -6 -4 -194 -3 -417 l3 -405 128 -3 127 -3 0 421 0
420 -125 0 c-91 0 -127 -3 -130 -13z"/>
<path d="M2280 3940 l0 -420 130 0 130 0 -2 418 -3 417 -127 3 -128 3 0 -421z"/>
<path d="M2910 3735 l0 -215 130 0 130 0 0 215 0 215 -130 0 -130 0 0 -215z"/>
<path d="M789 2596 c-20 -7 -50 -22 -67 -34 -33 -24 -82 -112 -82 -149 l0 -23
273 0 c301 0 317 -3 317 -59 0 -59 -9 -61 -313 -61 l-277 0 0 -775 c0 -862 -4
-815 68 -888 69 -71 -3 -67 1362 -67 1365 0 1293 -4 1362 67 38 39 68 97 68
132 0 20 -8 20 -281 23 -264 3 -281 4 -295 22 -18 26 -18 61 2 80 13 14 54 16
295 16 l279 0 0 779 0 779 -28 53 c-20 39 -41 62 -77 84 l-48 30 -1261 2
c-1014 2 -1268 0 -1297 -11z m875 -401 c180 -38 322 -200 334 -380 4 -63 2
-79 -13 -95 -43 -47 -125 -8 -125 60 0 71 -27 135 -83 193 -45 48 -62 58 -125
77 -63 19 -90 22 -175 17 -57 -3 -123 -12 -150 -22 -58 -21 -125 -84 -157
-150 -24 -49 -25 -58 -28 -311 -3 -217 -1 -273 13 -325 19 -75 67 -139 140
-184 48 -30 49 -30 204 -30 156 0 156 0 211 31 41 22 66 47 98 93 23 35 42 69
42 77 0 11 -25 14 -131 14 -161 0 -189 11 -189 75 0 67 24 75 234 75 189 0
222 -7 233 -48 3 -13 3 -54 0 -91 -13 -131 -114 -269 -246 -334 -64 -31 -69
-32 -223 -35 -216 -5 -281 14 -391 117 -58 54 -102 128 -123 210 -13 52 -15
110 -12 354 3 215 8 301 18 327 17 44 67 128 94 159 51 58 169 120 256 134 60
10 231 5 294 -8z m1222 -14 c81 -29 173 -111 211 -189 25 -50 28 -68 27 -147
0 -111 -20 -161 -95 -240 l-51 -54 46 -46 c26 -25 59 -71 74 -103 22 -48 26
-70 26 -142 -1 -54 -7 -101 -18 -129 -35 -95 -143 -189 -247 -216 -79 -22
-476 -21 -504 1 -20 15 -20 28 -23 625 -2 425 1 616 8 630 6 11 21 24 33 29
12 6 117 8 237 6 191 -3 222 -6 276 -25z"/>
<path d="M2470 1845 l0 -215 161 0 c193 0 227 8 290 70 60 57 77 110 60 190
-9 46 -19 63 -59 102 -29 27 -65 51 -88 57 -21 6 -112 11 -201 11 l-163 0 0
-215z"/>
<path d="M2470 1260 l0 -220 156 0 c194 0 233 9 295 69 129 125 63 321 -122
360 -27 6 -113 11 -189 11 l-140 0 0 -220z"/>
</g>
</svg>
